<svg width="394" height="80" viewBox="0 0 394 80" fill="none" xmlns="http://www.w3.org/2000/svg">
<g clip-path="url(#clip0_4914_2887)">
<path fill-rule="evenodd" clip-rule="evenodd" d="M104.903 46.255C101.117 44.5384 98.7419 43.8799 96.5785 43.8799C94.2034 43.8799 92.6984 44.75 92.6984 46.1374C92.6984 50.1351 106.079 48.9358 106.079 58.2244C106.079 63.3038 101.87 66.2197 95.9201 66.2197C91.2875 66.2197 89.0065 65.0204 86.4198 63.633V57.9187C90.2058 60.5054 92.4633 61.3755 95.3792 61.3755C97.9659 61.3755 99.2593 60.5054 99.2593 58.8829C99.2593 54.556 85.8789 56.1786 85.8789 46.6783C85.8789 42.0457 89.759 39.0122 95.9201 39.0122C98.836 39.0122 101.54 39.6706 104.879 41.1756V46.255H104.903Z" fill="white"/>
<path fill-rule="evenodd" clip-rule="evenodd" d="M125.315 62.4573C124.774 62.4573 124.351 62.1281 124.351 61.2815V53.0746C124.351 49.1945 121.317 47.666 116.802 47.666C114.004 47.666 111.394 48.4185 109.136 49.8294V54.368C110.853 52.6513 113.463 51.452 115.72 51.452C117.978 51.452 118.848 52.7454 118.754 54.368C111.299 56.743 108.172 57.6131 108.172 61.8224C108.172 64.0799 110.335 66.2433 113.134 66.2433C115.085 66.2433 116.92 65.7025 119.083 64.1975C119.412 65.7025 120.376 66.2433 122.211 66.2433C123.716 66.2433 125.879 65.6084 127.502 64.6207V61.4932C126.208 62.3633 125.785 62.4573 125.338 62.4573H125.315ZM118.73 61.5872C117.86 62.3397 116.685 62.8806 115.697 62.8806C114.615 62.8806 113.863 62.0105 113.863 61.0464C113.863 59.2122 115.368 58.4597 118.73 57.2604V61.5872Z" fill="white"/>
<path fill-rule="evenodd" clip-rule="evenodd" d="M126.703 47.9951H132.747L136.533 57.8246L140.413 47.9951H146.362L138.155 66.2432H135.028L126.703 47.9951Z" fill="white"/>
<path fill-rule="evenodd" clip-rule="evenodd" d="M152.945 57.8247H165.785C165.996 51.3344 161.693 47.666 156.496 47.666C150.993 47.666 147.09 51.5461 147.09 57.0722C147.09 62.5984 151.182 66.2433 157.46 66.2433C158.871 66.2433 162.21 66.2433 165.456 63.8682V60.2939C162.751 62.2457 161.035 62.8806 158.754 62.8806C155.297 62.8806 153.133 61.0464 152.922 57.8012L152.945 57.8247ZM156.943 51.0287C159.106 51.0287 160.611 52.4397 160.823 54.9088H153.039C153.251 52.4162 154.662 51.0287 156.919 51.0287H156.943Z" fill="white"/>
<path fill-rule="evenodd" clip-rule="evenodd" d="M191.486 51.8754H184.996V59.2122C184.996 60.9289 185.96 62.1282 187.7 62.1282C188.9 62.1282 189.958 61.7989 191.486 61.0464V65.1382C189.534 65.8907 188.029 66.2199 186.313 66.2199C182.527 66.2199 179.305 64.5032 179.305 59.5179V51.8519H176.812V50.7701L184.267 42.3516H185.019V47.9718H191.51V51.8519L191.486 51.8754Z" fill="white"/>
<path fill-rule="evenodd" clip-rule="evenodd" d="M199.273 50.6759H199.39C201.013 48.6301 202.847 47.6424 205.104 47.6424C208.35 47.6424 211.595 49.5942 211.595 54.4384V65.8905H205.975V55.6377C205.975 52.9334 204.893 51.7576 203.059 51.7576C201.765 51.7576 200.684 52.6277 199.273 54.4619V65.914H193.652V39.459H199.273V50.6994V50.6759Z" fill="white"/>
<path fill-rule="evenodd" clip-rule="evenodd" d="M220.433 57.8247H233.273C233.485 51.3344 229.181 47.666 223.984 47.666C218.482 47.666 214.578 51.5461 214.578 57.0722C214.578 62.5984 218.576 66.2433 224.949 66.2433C226.359 66.2433 229.699 66.2433 232.944 63.8682V60.2939C230.239 62.2457 228.523 62.8806 226.242 62.8806C222.667 62.8806 220.528 61.0464 220.41 57.8012L220.433 57.8247ZM224.431 51.0287C226.595 51.0287 228.006 52.4397 228.311 54.9088H220.528C220.739 52.4162 222.15 51.0287 224.408 51.0287H224.431Z" fill="white"/>
<path fill-rule="evenodd" clip-rule="evenodd" d="M271.418 63.633C267.749 65.4672 264.951 66.2197 261.047 66.2197C250.677 66.2197 245.598 59.5178 245.598 52.7218C245.598 45.9258 251.43 39.0122 261.471 39.0122C265.257 39.0122 268.502 39.8823 271.089 41.3873V47.3367C268.173 45.7141 265.257 44.5384 262.012 44.5384C256.391 44.5384 252.394 47.8776 252.394 52.6277C252.394 57.3779 256.274 60.7171 261.8 60.7171C265.257 60.7171 267.632 59.6354 271.418 57.8012V63.633Z" fill="white"/>
<path fill-rule="evenodd" clip-rule="evenodd" d="M280.917 50.6759H281.035C282.657 48.6301 284.491 47.6424 286.749 47.6424C289.994 47.6424 293.239 49.5942 293.239 54.4384V65.8905H287.619V55.6377C287.619 52.9334 286.443 51.7576 284.703 51.7576C283.41 51.7576 282.328 52.6277 280.917 54.4619V65.914H275.297V39.459H280.917V50.6994V50.6759Z" fill="white"/>
<path fill-rule="evenodd" clip-rule="evenodd" d="M297.215 47.9951H302.835V65.914H297.215V47.9951Z" fill="white"/>
<path fill-rule="evenodd" clip-rule="evenodd" d="M303.161 42.1632C303.161 43.8799 301.75 45.2908 300.034 45.2908C298.317 45.2908 296.906 43.8799 296.906 42.1632C296.906 40.4466 298.317 39.0356 300.034 39.0356C301.75 39.0356 303.161 40.4466 303.161 42.1632Z" fill="white"/>
<path fill-rule="evenodd" clip-rule="evenodd" d="M306.926 39.459H312.546V65.914H306.926V39.459Z" fill="white"/>
<path fill-rule="evenodd" clip-rule="evenodd" d="M328.958 39.459V48.7476C327.453 47.9951 325.925 47.6659 324.326 47.6659C319.152 47.6659 315.578 51.4519 315.578 56.9546C315.578 62.4572 319.152 66.2432 323.997 66.2432C325.948 66.2432 327.336 65.7024 328.958 64.5266V65.9375H334.579V39.4825H328.958V39.459ZM328.958 61.0463C327.783 62.0104 326.795 62.4572 325.619 62.4572C323.033 62.4572 321.292 60.2938 321.292 57.0486C321.292 53.4743 323.009 51.4284 325.831 51.4284C326.795 51.4284 328.088 51.8517 328.958 52.3926V61.0228V61.0463Z" fill="white"/>
<path fill-rule="evenodd" clip-rule="evenodd" d="M344.198 53.1687H344.316C345.938 49.3827 347.89 47.666 350.03 47.666C351.112 47.666 352.076 48.0893 353.699 49.2886L352.194 54.2504C350.689 53.2862 349.701 52.957 348.854 52.957C346.809 52.957 345.515 54.9088 344.222 58.1304V65.9141H338.602V47.9952H344.222V53.1687H344.198Z" fill="white"/>
<path fill-rule="evenodd" clip-rule="evenodd" d="M359.953 57.8247H372.793C373.122 51.3344 368.795 47.666 363.504 47.666C358.213 47.666 354.098 51.5461 354.098 57.0722C354.098 62.5984 358.189 66.2433 364.468 66.2433C365.879 66.2433 369.218 66.2433 372.463 63.8682V60.2939C369.877 62.2457 368.136 62.8806 365.879 62.8806C362.305 62.8806 360.165 61.0464 359.93 57.8012L359.953 57.8247ZM363.951 51.0287C366.114 51.0287 367.619 52.4397 367.831 54.9088H360.047C360.259 52.4162 361.764 51.0287 363.927 51.0287H363.951Z" fill="white"/>
<path fill-rule="evenodd" clip-rule="evenodd" d="M381.327 50.5819C383.044 48.5361 384.784 47.666 387.159 47.666C389.863 47.666 393.649 49.2886 393.649 54.462V65.9141H388.029V55.0029C388.029 52.4162 386.83 51.4285 385.231 51.4285C383.82 51.4285 382.738 52.181 381.351 54.3444V65.8906H375.73V47.9717H381.351V50.5584L381.327 50.5819Z" fill="white"/>
<path fill-rule="evenodd" clip-rule="evenodd" d="M71.0879 21.7519C74.6623 18.0834 76.2613 16.4609 76.0497 15.3791C75.8381 14.6266 75.0856 13.9682 74.0038 13.4273C72.8046 12.8865 71.0879 12.5573 70.2178 13.0041C69.8886 13.1216 69.3478 13.6625 68.172 14.8383L67.0903 15.92C66.4318 15.1675 65.7969 14.5091 65.1385 13.8741C60.3883 9.124 54.4389 5.78478 47.7605 4.25627C45.2913 1.22276 41.9521 -0.282235 38.4953 0.0469827C35.5794 0.258623 32.8751 1.76362 30.9468 4.37385C24.0332 5.99642 17.6605 9.45321 12.3695 14.415C11.4054 13.9917 8.91272 14.2974 7.40772 14.9559C6.53765 15.3791 5.99679 15.92 5.90273 16.4609C5.69109 17.0017 5.90273 17.6366 7.61936 19.9176C2.30484 27.1369 -0.375934 36.0023 0.0473465 44.8442C0.470627 53.8036 4.13906 62.2222 10.4177 68.5008C12.6752 70.7583 15.0503 72.7101 17.7546 74.2151C21.6346 76.4726 26.0791 78.0952 30.7117 79.0828C40.6588 81.1287 50.3707 79.6237 58.5776 75.626V75.5085C59.6593 75.0852 60.0826 73.8859 59.6593 72.7101L59.5418 72.3809C57.8251 67.6308 52.5341 53.1687 56.8375 40.7524C58.6717 35.4614 63.3278 30.0529 67.2078 25.8436C70.6646 32.0987 72.1696 39.3415 71.4171 46.3492C70.6646 52.9335 68.0779 58.977 63.7511 63.8447C63.7511 63.8447 63.6335 64.174 63.6335 64.3856V64.5972L63.9627 65.5614C64.0803 65.8906 64.386 65.9847 64.7152 65.9847C64.9268 65.9847 65.0444 65.9847 65.2561 65.773C76.3789 53.5684 78.754 35.7436 71.0879 21.7048V21.7519ZM23.7981 48.8653C22.7164 53.6155 21.0938 60.1058 21.423 70.0293C18.8363 68.5243 16.4612 66.6901 14.4154 64.6208C8.70108 58.7889 5.00913 51.3345 4.16257 43.3392C3.41007 35.7671 5.12671 28.1011 9.24194 21.9635C10.4412 23.4685 12.0403 25.2087 13.6629 27.0429C17.5429 31.5814 22.0814 36.6607 24.1273 40.2116C25.4207 42.2574 24.7857 44.7501 23.7981 48.8418V48.8653ZM62.9986 19.8236C54.58 27.0664 46.9139 30.8289 40.0944 30.9465C34.9209 30.9465 29.5124 28.9947 24.2214 25.2322C19.6829 22.1046 16.3436 18.4362 14.3919 16.2727L14.1802 16.0611C18.2954 12.181 23.3513 9.47673 28.8774 8.27743C28.219 10.3233 27.9133 12.6043 28.1249 14.8618C28.4542 19.0711 30.2884 22.7395 33.2043 25.2322C35.4618 27.0664 38.1661 27.9365 40.8704 27.7248C43.5747 27.5132 46.0438 26.1022 47.9956 23.9388C50.3707 21.0229 51.57 17.0252 51.2408 12.9335C51.1232 12.181 51.0291 11.4285 50.9115 10.676C54.6976 12.3927 58.1543 14.8853 61.1643 17.9188C61.8228 18.4597 62.3636 19.1181 62.9986 19.8706V19.8236Z" fill="white"/>
</g>
<defs>
<clipPath id="clip0_4914_2887">
<rect width="393.651" height="80" fill="white"/>
</clipPath>
</defs>
</svg>
