<svg width="81" height="81" viewBox="0 0 81 81" fill="none" xmlns="http://www.w3.org/2000/svg">
<path d="M67.0054 19.3441C60.6568 14.2422 50.618 13.3779 50.1937 13.3412C49.5233 13.2836 48.8868 13.6634 48.6118 14.2762C48.6014 14.2972 48.0409 15.9236 47.4987 17.4924C54.8766 18.7836 59.8895 21.6488 60.1566 21.806C61.4085 22.5341 61.8276 24.1396 61.0968 25.3888C60.6123 26.2217 59.7349 26.6879 58.834 26.6879C58.3861 26.6879 57.9357 26.5753 57.5218 26.3343C57.4485 26.2898 50.0942 22.1046 40.5059 22.1046C30.9149 22.1046 23.558 26.2924 23.4847 26.3343C22.2354 27.0598 20.6326 26.6329 19.9071 25.381C19.1816 24.1343 19.6033 22.5341 20.8499 21.806C21.1171 21.6488 26.1483 18.7731 33.5471 17.4846C32.9761 15.8974 32.3999 14.2972 32.3895 14.2762C32.1145 13.6607 31.478 13.2731 30.8076 13.3412C30.3833 13.3753 20.3445 14.2396 13.9121 19.4122C10.5492 22.5184 3.83398 40.6788 3.83398 56.38C3.83398 56.6577 3.9047 56.9274 4.04351 57.1684C8.68184 65.3136 21.3266 67.4455 24.2076 67.5372C24.2259 67.5398 24.2416 67.5398 24.2573 67.5398C24.7654 67.5398 25.2447 67.2962 25.5459 66.885L28.6626 62.6631C21.8268 61.0158 18.2126 58.4255 17.9952 58.2657C16.8323 57.4093 16.5809 55.7698 17.4373 54.6043C18.2911 53.4441 19.9254 53.1874 21.0883 54.0386C21.1852 54.1015 27.8559 58.7712 40.5007 58.7712C53.1952 58.7712 59.8476 54.0831 59.913 54.036C61.0759 53.1927 62.7154 53.4467 63.5666 54.6148C64.4152 55.7777 64.169 57.4067 63.0114 58.2605C62.794 58.4203 59.198 61.0053 52.378 62.6527L55.4554 66.8824C55.7566 67.2962 56.2359 67.5372 56.744 67.5372C56.7623 67.5372 56.778 67.5372 56.7937 67.5346C59.6773 67.4429 72.3221 65.311 76.9578 57.1657C77.0966 56.9248 77.1673 56.655 77.1673 56.3774C77.1673 40.6788 70.4521 22.5184 67.0054 19.3441ZM30.0245 50.9141C27.1304 50.9141 24.7864 47.9834 24.7864 44.3665C24.7864 40.7496 27.1304 37.8188 30.0245 37.8188C32.9185 37.8188 35.2626 40.7496 35.2626 44.3665C35.2626 47.9834 32.9185 50.9141 30.0245 50.9141ZM50.9768 50.9141C48.0828 50.9141 45.7387 47.9834 45.7387 44.3665C45.7387 40.7496 48.0828 37.8188 50.9768 37.8188C53.8709 37.8188 56.2149 40.7496 56.2149 44.3665C56.2149 47.9834 53.8709 50.9141 50.9768 50.9141Z" fill="url(#paint0_linear_4281_10316)"/>
<defs>
<linearGradient id="paint0_linear_4281_10316" x1="77.1673" y1="13.3335" x2="25.3457" y2="83.4407" gradientUnits="userSpaceOnUse">
<stop stop-color="#25D695"/>
<stop offset="1" stop-color="#179B69"/>
</linearGradient>
</defs>
</svg>
