<svg width="81" height="81" viewBox="0 0 81 81" fill="none" xmlns="http://www.w3.org/2000/svg">
<path d="M70.4999 15.1532C70.0114 17.4905 69.4293 20.2802 68.8352 23.097C65.7973 37.4301 62.7572 51.7621 59.7153 66.0932C59.6791 66.2591 59.661 66.4281 59.6218 66.591C59.5871 67.2723 59.3535 67.9283 58.9495 68.4781C58.5456 69.0278 57.9891 69.4471 57.3492 69.6837C56.7094 69.9203 56.0143 69.9639 55.3499 69.8093C54.6854 69.6546 54.0807 69.3086 53.6111 68.8138C50.3631 66.4705 47.1576 64.0636 43.9368 61.6811C42.2389 60.4295 40.5138 59.2144 38.8641 57.9025C37.9594 57.1938 37.3985 57.3205 36.6325 58.1046C34.4822 60.3091 32.2534 62.4383 30.0549 64.5916C29.619 65.1375 29.0597 65.5723 28.4233 65.8606C27.7869 66.1489 27.0916 66.2823 26.3937 66.2501C26.0131 66.2416 25.6457 66.1085 25.3482 65.8709C25.0507 65.6333 24.8395 65.3048 24.7471 64.9354C22.829 58.9038 20.8475 52.9084 18.9717 46.8737C18.8479 46.3538 18.5796 45.8793 18.1975 45.5057C17.8153 45.1321 17.3351 44.8744 16.8125 44.7624C12.1652 43.3902 7.54465 41.9278 2.93951 40.45C1.87493 40.1092 0.605622 39.7866 0.5061 38.3903C0.406579 36.994 1.54333 36.4238 2.55664 35.9322C5.48198 34.5148 8.58826 33.4986 11.6041 32.3285C29.6507 25.3559 47.7024 18.3934 65.759 11.4409C68.4944 10.3703 70.512 11.7665 70.4999 15.1532ZM26.7947 61.6148C27.0721 58.599 27.2744 55.7041 27.6333 52.824C27.7961 51.5151 27.5186 50.1096 28.7822 48.9968C36.1227 42.4766 43.3937 35.878 50.6859 29.3005C52.9699 27.2417 55.2478 25.1748 57.5197 23.0999C57.8574 22.7984 58.4878 22.4696 58.0837 21.8935C57.7459 21.402 57.1548 21.5921 56.6844 21.761C56.1734 21.9528 55.6826 22.1943 55.2188 22.4818C44.1287 29.4684 33.0373 36.4521 21.9451 43.4327C21.7467 43.518 21.5686 43.6437 21.4216 43.802C21.2747 43.9602 21.1622 44.1471 21.0918 44.3512C21.0214 44.5554 20.9945 44.7722 21.0126 44.9874C21.0308 45.2026 21.0938 45.4116 21.1974 45.6011C22.8592 50.553 24.4514 55.5258 26.086 60.4868C26.2096 60.8397 26.2005 61.3132 26.7947 61.6148Z" fill="url(#paint0_linear_4281_10321)"/>
<defs>
<linearGradient id="paint0_linear_4281_10321" x1="70.5" y1="11.0874" x2="12.5679" y2="80.0393" gradientUnits="userSpaceOnUse">
<stop stop-color="#25D695"/>
<stop offset="1" stop-color="#179B69"/>
</linearGradient>
</defs>
</svg>
