<svg width="81" height="81" viewBox="0 0 81 81" fill="none" xmlns="http://www.w3.org/2000/svg">
<path d="M75.4434 19.8222C73.2563 20.7819 70.9575 21.4517 68.6036 21.8151C69.7038 21.6249 71.33 19.5914 71.9656 18.7682C72.9801 17.5172 73.7527 16.0814 74.2425 14.5366C74.3036 14.4149 74.3464 14.2619 74.2425 14.1715C74.1845 14.1461 74.1211 14.136 74.0582 14.1414C73.9953 14.1469 73.9347 14.1677 73.8817 14.2027C71.3139 15.6008 68.5851 16.6661 65.7586 17.3741C65.661 17.4053 65.5568 17.4078 65.4579 17.3813C65.3589 17.3549 65.2693 17.3006 65.1993 17.2245C64.9817 16.9592 64.7445 16.7109 64.4901 16.4822C63.3162 15.4514 61.9871 14.6207 60.5539 14.0219C58.6411 13.2307 56.5772 12.8917 54.5177 13.0302C52.5168 13.1671 50.5664 13.7288 48.7907 14.6797C47.0097 15.6294 45.4371 16.9403 44.1695 18.5314C42.8584 20.1809 41.9196 22.1049 41.4193 24.1665C40.9877 26.1218 40.9375 28.1446 41.2723 30.1195C41.3151 30.4501 41.2725 30.4967 40.9914 30.45C30.2421 29.3318 20.2881 24.1624 13.0763 15.9523C12.7492 15.575 12.5721 15.5751 12.3062 15.9805C10.8572 18.7122 10.3093 21.8474 10.7442 24.9218C11.1791 27.9961 12.5734 30.8456 14.7204 33.0477C15.2674 33.5747 15.8298 34.105 16.438 34.5852C14.56 34.4414 12.7288 33.9187 11.0501 33.0477C10.7231 32.8356 10.5579 32.9574 10.5304 33.3347C10.5096 33.88 10.5395 34.4259 10.6192 34.9655C10.9483 37.5293 11.9383 39.9582 13.4885 42.0035C15.0387 44.0488 17.0933 45.6373 19.4423 46.607C20.0158 46.861 20.6154 47.0485 21.23 47.1654C19.49 47.5207 17.7042 47.5775 15.9459 47.3337C15.5608 47.2589 15.4142 47.4523 15.5609 47.8328C16.4656 50.2478 17.9603 52.3864 19.903 54.0462C21.8457 55.7059 24.1719 56.8318 26.6607 57.3162C27.165 57.4066 27.6663 57.4063 28.1705 57.5248C28.14 57.5716 28.1096 57.5717 28.0821 57.6184C25.9257 59.6015 23.322 61.0092 20.5029 61.716C16.8166 63.0588 12.8889 63.5718 8.99005 63.2193C8.37882 63.1258 8.24151 63.132 8.07342 63.2193C7.90533 63.3066 8.05198 63.4782 8.25063 63.6404C9.03606 64.1705 9.83353 64.6382 10.6465 65.0904C13.0916 66.4205 15.6724 67.4738 18.3421 68.2309C25.2093 70.339 32.4982 70.5716 39.4812 68.9059C46.4642 67.2401 52.8968 63.7341 58.1364 58.738C66.2903 50.4709 69.1385 39.0665 69.1385 27.6528C69.1385 27.2068 69.6551 26.9576 69.9638 26.7174C72.0255 25.0797 73.8418 23.1434 75.355 20.97C75.5906 20.655 75.7083 20.2647 75.6877 19.8691V19.8097C75.6969 19.6413 75.7184 19.6944 75.4434 19.8222Z" fill="url(#paint0_linear_4281_10312)"/>
<defs>
<linearGradient id="paint0_linear_4281_10312" x1="75.6923" y1="13" x2="19.5198" y2="79.7049" gradientUnits="userSpaceOnUse">
<stop stop-color="#25D695"/>
<stop offset="1" stop-color="#179B69"/>
</linearGradient>
</defs>
</svg>
